<svg width="104" height="104" viewBox="0 0 104 104" fill="none" xmlns="http://www.w3.org/2000/svg">
<path d="M35.9868 94.9833C35.9868 88.714 36.9673 82.5583 38.8951 76.7249C39.87 73.8665 38.9756 70.3527 37.1838 68.6081L28.4921 57.0943C35.6198 43.7415 43.8422 35.5164 57.0948 28.486L68.3087 36.922C70.4975 39.1137 73.6948 39.8999 76.6948 38.958C82.5588 37.022 88.7116 36.0385 94.9836 36.0385C99.5145 36.0388 103.201 32.3527 103.201 27.822L103.201 9.01667C103.201 4.486 99.5145 0.799866 94.9839 0.799866C43.0505 0.799866 0.800648 43.05 0.800648 94.9833C0.800648 99.514 4.48678 103.2 9.01745 103.2H27.7702C32.3006 103.2 35.9868 99.5137 35.9868 94.9833Z" fill="#3172FF"/>
</svg>
