<svg width="440" height="408" viewBox="0 0 440 408" fill="none" xmlns="http://www.w3.org/2000/svg">
<path d="M423.76 256.8C419.517 256.8 415.447 258.486 412.446 261.486C409.446 264.487 407.76 268.557 407.76 272.8V327.44C407.76 340.319 402.644 352.67 393.537 361.777C384.43 370.884 372.079 376 359.2 376H80.8C67.9211 376 55.5697 370.884 46.4629 361.777C37.3561 352.67 32.24 340.319 32.24 327.44V272.8C32.24 268.557 30.5543 264.487 27.5537 261.486C24.5531 258.486 20.4835 256.8 16.24 256.8C11.9965 256.8 7.92688 258.486 4.9263 261.486C1.92571 264.487 0.240005 268.557 0.240005 272.8V327.44C0.261185 348.799 8.75553 369.278 23.8589 384.381C38.9622 399.484 59.4407 407.979 80.8 408H359.2C380.559 407.979 401.038 399.484 416.141 384.381C431.245 369.278 439.739 348.799 439.76 327.44V272.8C439.76 268.557 438.074 264.487 435.074 261.486C432.073 258.486 428.003 256.8 423.76 256.8Z" fill="white"/>
<path d="M208.64 303.52C210.127 305.02 211.897 306.21 213.847 307.022C215.797 307.835 217.888 308.253 220 308.253C222.112 308.253 224.203 307.835 226.153 307.022C228.103 306.21 229.873 305.02 231.36 303.52L322.4 212.48C324.94 209.423 326.252 205.531 326.08 201.56C325.907 197.59 324.264 193.825 321.469 191C318.673 188.175 314.927 186.491 310.958 186.277C306.99 186.062 303.083 187.333 300 189.84L236 253.84V16C236 11.7565 234.314 7.68687 231.314 4.68629C228.313 1.68571 224.243 0 220 0C215.757 0 211.687 1.68571 208.686 4.68629C205.686 7.68687 204 11.7565 204 16V253.6L140 189.6C136.998 186.598 132.926 184.911 128.68 184.911C124.434 184.911 120.362 186.598 117.36 189.6C114.358 192.602 112.671 196.674 112.671 200.92C112.671 205.166 114.358 209.238 117.36 212.24L208.64 303.52Z" fill="white"/>
</svg>
